<svg version="1.1" id="Layer_1" xmlns="http://www.w3.org/2000/svg" x="0" y="0" viewBox="0 0 125 125" style="enable-background:new 0 0 125 125" xml:space="preserve"><style>.st1{fill:#fff}</style><path d="M62.5 0C28 0 0 28.7 0 64.1c0 28.3 17.9 52.3 42.7 60.8 3.1.6 4.3-1.4 4.3-3.1 0-1.5-.1-6.6-.1-11.9-17.4 3.9-21.1-7.6-21.1-7.6-2.8-7.4-6.9-9.4-6.9-9.4-5.7-4 .4-3.9.4-3.9 6.3.5 9.6 6.6 9.6 6.6 5.6 9.8 14.6 7 18.2 5.3.6-4.1 2.2-7 4-8.6-13.9-1.6-28.5-7.1-28.5-31.7 0-7 2.4-12.7 6.4-17.2-.6-1.6-2.8-8.1.6-17 0 0 5.2-1.7 17.2 6.6 5-1.4 10.3-2.1 15.6-2.2 5.3 0 10.7.7 15.7 2.2 11.9-8.3 17.2-6.6 17.2-6.6 3.4 8.8 1.3 15.3.6 17 4 4.5 6.4 10.2 6.4 17.2 0 24.6-14.6 30-28.5 31.6 2.2 2 4.2 5.9 4.2 11.9 0 8.6-.1 15.5-.1 17.6 0 1.7 1.1 3.7 4.3 3.1 24.8-8.5 42.7-32.5 42.7-60.8C125 28.7 97 0 62.5 0z" style="fill-rule:evenodd;clip-rule:evenodd;fill:#fff"/><path class="st1" d="M23.7 92c-.1.3-.6.4-1.1.2-.5-.2-.7-.6-.6-1 .1-.3.6-.4 1.1-.2.5.3.7.7.6 1zM26.2 94.9c-.3.3-.9.2-1.3-.3-.4-.4-.5-1-.2-1.3.3-.3.9-.2 1.3.3.4.4.5 1 .2 1.3zM28.7 98.6c-.4.3-1 0-1.4-.6-.4-.6-.4-1.3 0-1.5.4-.3 1 0 1.4.5.4.6.4 1.3 0 1.6zM32 102.2c-.3.4-1.1.3-1.6-.2s-.7-1.2-.4-1.6c.3-.4 1.1-.3 1.6.2.6.4.8 1.2.4 1.6zM36.7 104.2c-.2.5-.9.7-1.6.5-.7-.2-1.2-.8-1-1.3.1-.5.9-.7 1.6-.5.7.2 1.1.8 1 1.3zM41.8 104.6c0 .5-.6 1-1.3 1-.7 0-1.4-.4-1.4-.9s.6-1 1.3-1c.8 0 1.4.4 1.4.9zM46.6 103.8c.1.5-.4 1-1.2 1.2-.7.1-1.4-.2-1.5-.7-.1-.5.4-1.1 1.2-1.2.7-.2 1.4.2 1.5.7zm0 0"/></svg>