<?xml version="1.0" encoding="utf-8"?>
<!-- Generator: Adobe Illustrator 20.1.0, SVG Export Plug-In . SVG Version: 6.00 Build 0)  -->
<svg version="1.1"
	 id="svg2" inkscape:version="0.48.3.1 r9886" sodipodi:docname="envelope_alt_font_awesome.svg" xmlns:cc="http://creativecommons.org/ns#" xmlns:dc="http://purl.org/dc/elements/1.1/" xmlns:inkscape="http://www.inkscape.org/namespaces/inkscape" xmlns:rdf="http://www.w3.org/1999/02/22-rdf-syntax-ns#" xmlns:sodipodi="http://sodipodi.sourceforge.net/DTD/sodipodi-0.dtd" xmlns:svg="http://www.w3.org/2000/svg"
	 xmlns="http://www.w3.org/2000/svg" xmlns:xlink="http://www.w3.org/1999/xlink" x="0px" y="0px" viewBox="0 0 1280 720"
	 style="enable-background:new 0 0 1280 720;" xml:space="preserve">
<style type="text/css">
	.st0{fill:#FFFFFF;}
</style>
<sodipodi:namedview  bordercolor="#666666" borderopacity="1" gridtolerance="10" guidetolerance="10" id="namedview8" inkscape:current-layer="svg2" inkscape:cx="896" inkscape:cy="896" inkscape:pageopacity="0" inkscape:pageshadow="2" inkscape:window-height="480" inkscape:window-maximized="0" inkscape:window-width="640" inkscape:window-x="0" inkscape:window-y="25" inkscape:zoom="0.13169643" objecttolerance="10" pagecolor="#ffffff" showgrid="false">
	</sodipodi:namedview>
<g id="g4" transform="matrix(1,0,0,-1,30.372881,1252.3051)">
	<path id="path6" inkscape:connector-curvature="0" class="st0" d="M976.9,1002.8v-309c0-17.1-6.1-31.8-18.3-44
		c-12.2-12.2-26.9-18.3-44-18.3H341.7c-17.1,0-31.8,6.1-44,18.3c-12.2,12.2-18.3,26.9-18.3,44v309c11.4-12.7,24.5-24,39.3-33.9
		c93.9-63.8,158.4-108.6,193.4-134.3c14.8-10.9,26.8-19.4,36-25.5s21.5-12.3,36.8-18.7s29.6-9.5,42.8-9.5h0.4h0.4
		c13.2,0,27.5,3.2,42.8,9.5s27.6,12.6,36.8,18.7c9.2,6.1,21.2,14.6,36,25.5c44.1,31.9,108.7,76.7,193.8,134.3
		C952.7,979,965.7,990.3,976.9,1002.8z M976.9,1117.2c0-20.5-6.4-40.1-19.1-58.8c-12.7-18.7-28.5-34.6-47.5-47.9
		c-97.6-67.7-158.3-109.9-182.1-126.5c-2.6-1.8-8.1-5.8-16.5-11.9s-15.4-11-21-14.8c-5.6-3.8-12.3-8-20.2-12.6
		c-7.9-4.7-15.4-8.2-22.4-10.5c-7-2.3-13.5-3.5-19.5-3.5h-0.4h-0.4c-6,0-12.5,1.2-19.5,3.5c-7,2.3-14.5,5.8-22.4,10.5
		c-7.9,4.7-14.7,8.9-20.2,12.6s-12.6,8.7-21,14.8s-13.9,10.1-16.5,11.9c-23.6,16.6-57.6,40.3-102,71c-44.4,30.7-71,49.2-79.8,55.5
		c-16.1,10.9-31.3,25.9-45.5,45c-14.3,19.1-21.4,36.8-21.4,53.1c0,20.2,5.4,37.1,16.2,50.6c10.8,13.5,26.1,20.2,46.1,20.2h572.9
		c16.9,0,31.5-6.1,43.8-18.3C970.7,1149,976.9,1134.3,976.9,1117.2z"/>
</g>
</svg>
