<?xml version="1.0" encoding="utf-8"?>
<!-- Generator: Adobe Illustrator 20.1.0, SVG Export Plug-In . SVG Version: 6.00 Build 0)  -->
<svg version="1.1" id="Layer_1" xmlns="http://www.w3.org/2000/svg" xmlns:xlink="http://www.w3.org/1999/xlink" x="0px" y="0px"
	 viewBox="0 0 125 125" style="enable-background:new 0 0 125 125;" xml:space="preserve">
<style type="text/css">
	.st0{fill-rule:evenodd;clip-rule:evenodd;fill:#FFFFFF;}
	.st1{fill:#FFFFFF;}
</style>
<g>
	<path class="st0" d="M62.5,0C28,0,0,28.7,0,64.1c0,28.3,17.9,52.3,42.7,60.8c3.1,0.6,4.3-1.4,4.3-3.1c0-1.5-0.1-6.6-0.1-11.9
		c-17.4,3.9-21.1-7.6-21.1-7.6c-2.8-7.4-6.9-9.4-6.9-9.4c-5.7-4,0.4-3.9,0.4-3.9c6.3,0.5,9.6,6.6,9.6,6.6c5.6,9.8,14.6,7,18.2,5.3
		c0.6-4.1,2.2-7,4-8.6c-13.9-1.6-28.5-7.1-28.5-31.7c0-7,2.4-12.7,6.4-17.2c-0.6-1.6-2.8-8.1,0.6-17c0,0,5.2-1.7,17.2,6.6
		c5-1.4,10.3-2.1,15.6-2.2c5.3,0,10.7,0.7,15.7,2.2c11.9-8.3,17.2-6.6,17.2-6.6c3.4,8.8,1.3,15.3,0.6,17c4,4.5,6.4,10.2,6.4,17.2
		c0,24.6-14.6,30-28.5,31.6c2.2,2,4.2,5.9,4.2,11.9c0,8.6-0.1,15.5-0.1,17.6c0,1.7,1.1,3.7,4.3,3.1c24.8-8.5,42.7-32.5,42.7-60.8
		C125,28.7,97,0,62.5,0z"/>
	<path class="st1" d="M23.7,92c-0.1,0.3-0.6,0.4-1.1,0.2c-0.5-0.2-0.7-0.6-0.6-1c0.1-0.3,0.6-0.4,1.1-0.2
		C23.6,91.3,23.8,91.7,23.7,92L23.7,92z M22.9,91.4"/>
	<path class="st1" d="M26.2,94.9c-0.3,0.3-0.9,0.2-1.3-0.3c-0.4-0.4-0.5-1-0.2-1.3c0.3-0.3,0.9-0.2,1.3,0.3
		C26.4,94,26.5,94.6,26.2,94.9L26.2,94.9z M25.6,94.2"/>
	<path class="st1" d="M28.7,98.6c-0.4,0.3-1,0-1.4-0.6c-0.4-0.6-0.4-1.3,0-1.5c0.4-0.3,1,0,1.4,0.5C29.1,97.6,29.1,98.3,28.7,98.6
		L28.7,98.6z M28.7,98.6"/>
	<path class="st1" d="M32,102.2c-0.3,0.4-1.1,0.3-1.6-0.2c-0.5-0.5-0.7-1.2-0.4-1.6c0.3-0.4,1.1-0.3,1.6,0.2
		C32.2,101,32.4,101.8,32,102.2L32,102.2z M32,102.2"/>
	<path class="st1" d="M36.7,104.2c-0.2,0.5-0.9,0.7-1.6,0.5c-0.7-0.2-1.2-0.8-1-1.3c0.1-0.5,0.9-0.7,1.6-0.5
		C36.4,103.1,36.8,103.7,36.7,104.2L36.7,104.2z M36.7,104.2"/>
	<path class="st1" d="M41.8,104.6c0,0.5-0.6,1-1.3,1c-0.7,0-1.4-0.4-1.4-0.9c0-0.5,0.6-1,1.3-1C41.2,103.7,41.8,104.1,41.8,104.6
		L41.8,104.6z M41.8,104.6"/>
	<path class="st1" d="M46.6,103.8c0.1,0.5-0.4,1-1.2,1.2c-0.7,0.1-1.4-0.2-1.5-0.7c-0.1-0.5,0.4-1.1,1.2-1.2
		C45.8,102.9,46.5,103.3,46.6,103.8L46.6,103.8z M46.6,103.8"/>
</g>
</svg>
