<?xml version="1.0" encoding="utf-8"?>
<!-- Generator: Adobe Illustrator 20.1.0, SVG Export Plug-In . SVG Version: 6.00 Build 0)  -->
<svg version="1.1" id="Layer_1" xmlns="http://www.w3.org/2000/svg" xmlns:xlink="http://www.w3.org/1999/xlink" x="0px" y="0px"
	 viewBox="0 0 132 132" style="enable-background:new 0 0 132 132;" xml:space="preserve">
<style type="text/css">
	.st0{fill:#FFFFFF;}
</style>
<g>
	<circle class="st0" cx="66" cy="66" r="16"/>
	<path class="st0" d="M103.4,37.7c-0.9-2.2-1.9-3.8-3.6-5.5c-1.7-1.7-3.3-2.7-5.5-3.6c-1.7-0.7-4.2-1.4-8.9-1.7
		c-5.1-0.2-6.6-0.3-19.4-0.3c-1.6,0-3,0-4.3,0v0c-8.9,0-10.7,0.1-15.1,0.3c-4.7,0.2-7.2,1-8.9,1.7c-2.2,0.9-3.8,1.9-5.5,3.6
		c-1.7,1.7-2.7,3.3-3.6,5.5c-0.7,1.7-1.4,4.2-1.7,8.9c-0.2,5.1-0.3,6.6-0.3,19.4s0,14.3,0.3,19.4c0.2,4.7,1,7.2,1.7,8.9
		c0.9,2.2,1.9,3.8,3.6,5.5s3.3,2.7,5.5,3.6c1.7,0.7,4.2,1.4,8.9,1.7c5.1,0.2,6.6,0.3,19.4,0.3c12.8,0,14.3,0,19.4-0.3
		c4.7-0.2,7.2-1,8.9-1.7c2.2-0.9,3.8-1.9,5.5-3.6c1.7-1.7,2.7-3.3,3.6-5.5c0.7-1.7,1.4-4.2,1.7-8.9c0.2-5.1,0.3-6.6,0.3-19.4
		s-0.1-14.3-0.3-19.4C104.9,41.9,104.1,39.4,103.4,37.7z M66,90.6c-13.6,0-24.7-11-24.7-24.6c0-13.6,11-24.6,24.6-24.7c0,0,0,0,0,0
		h0c0,0,0,0,0,0c13.6,0,24.6,11,24.6,24.7C90.7,79.6,79.6,90.6,66,90.6z M91.6,46.1c-3.2,0-5.8-2.6-5.8-5.8c0-3.2,2.6-5.8,5.8-5.8v0
		c3.2,0,5.8,2.6,5.8,5.8S94.8,46.1,91.6,46.1z"/>
	<path class="st0" d="M130.9,29.2c-0.4-5.2-1.3-8.7-3.1-12.4c-1.5-3-3.2-5.3-5.6-7.6c-4.3-4.1-9.6-6.6-15.8-7.5
		c-3-0.4-3.6-0.6-19.2-0.6H66C38.9,1,31,1,29.4,1.2c-5.6,0.5-9,1.3-12.8,3.2c-2.9,1.4-5.2,3.1-7.5,5.5C5,14.1,2.5,19.4,1.6,25.7
		C1.2,28.7,1,29.3,1,44.8C1,50,1,56.8,1,66c0,27.1,0,35,0.2,36.6c0.5,5.4,1.3,8.8,3.1,12.6c3.4,7.1,10,12.5,17.8,14.5
		c2.7,0.7,5.6,1.1,9.4,1.3c1.6,0.1,18,0.1,34.4,0.1c16.4,0,32.8,0,34.4-0.1c4.4-0.2,7-0.5,9.8-1.3c7.8-2,14.2-7.3,17.8-14.5
		c1.8-3.6,2.7-7.2,3.1-12.3c0.1-1.1,0.1-19,0.1-36.8C131,48.1,131,30.3,130.9,29.2z M113.7,85.8c-0.2,5.1-1,8.6-2.2,11.6
		c-1.2,3.2-2.9,5.8-5.5,8.5c-2.7,2.7-5.3,4.3-8.5,5.5c-3.1,1.2-6.5,2-11.7,2.2C80.7,113.9,79,114,66,114c-13,0-14.7-0.1-19.8-0.3
		c-5.1-0.2-8.6-1-11.7-2.2c-3.2-1.2-5.8-2.9-8.5-5.5c-2.7-2.7-4.3-5.3-5.5-8.5c-1.2-3.1-2-6.5-2.2-11.7C18.1,80.7,18,79,18,66
		s0.1-14.7,0.3-19.8c0.2-5.1,1-8.6,2.2-11.6c1.2-3.2,2.9-5.8,5.5-8.5c2.7-2.7,5.3-4.3,8.5-5.5c3.1-1.2,6.5-2,11.6-2.2
		C51.3,18.1,53,18,66,18c0,0,0,0,0,0h0c0,0,0,0,0,0c13,0,14.7,0.1,19.8,0.3c5.1,0.2,8.6,1,11.7,2.2c3.2,1.2,5.8,2.9,8.5,5.5
		c2.7,2.7,4.3,5.3,5.5,8.5c1.2,3.1,2,6.5,2.2,11.7c0.2,5.1,0.3,6.8,0.3,19.8S113.9,80.7,113.7,85.8z"/>
</g>
</svg>
