<svg xmlns="http://www.w3.org/2000/svg" viewBox="0 0 256 256" style="enable-background:new 0 0 256 256" xml:space="preserve"><path d="M210 10.5H46c-19.6 0-35.5 15.9-35.5 35.5v164c0 19.6 15.9 35.5 35.5 35.5h164c19.6 0 35.5-15.9 35.5-35.5V46c0-19.6-15.9-35.5-35.5-35.5zM81.6 207.8H46.3V101.5h35.3v106.3zM64 87h-.2c-11.9 0-19.5-8.2-19.5-18.4 0-10.4 7.9-18.4 20-18.4S83.8 58.1 84 68.6C83.9 78.8 76.3 87 64 87zm145 120.8h-35.3v-56.9c0-14.3-5.1-24-17.9-24-9.8 0-15.6 6.6-18.1 12.9-.9 2.3-1.2 5.4-1.2 8.6v59.3h-35.3s.5-96.3 0-106.3h35.3v15c4.7-7.2 13.1-17.5 31.8-17.5 23.2 0 40.7 15.2 40.7 47.8v61.1z" style="fill:#fff"/></svg>