<?xml version="1.0" encoding="utf-8"?>
<!-- Generator: Adobe Illustrator 20.1.0, SVG Export Plug-In . SVG Version: 6.00 Build 0)  -->
<svg version="1.1" id="Layer_1" xmlns="http://www.w3.org/2000/svg" xmlns:xlink="http://www.w3.org/1999/xlink" x="0px" y="0px"
	 viewBox="0 0 125 125" style="enable-background:new 0 0 125 125;" xml:space="preserve">
<style type="text/css">
	.st0{fill:#FFFFFF;}
</style>
<path class="st0" d="M62.5,0L62.5,0C28,0,0,28,0,62.5C0,97,28,125,62.5,125C97,125,125,97,125,62.5C125,28,97,0,62.5,0z M91.2,90.1
	c-1.1,1.8-3.5,2.4-5.4,1.3c-14.7-9-33.1-11-54.9-6c-2.1,0.5-4.2-0.8-4.7-2.9c-0.5-2.1,0.8-4.2,2.9-4.7c23.8-5.4,44.2-3.1,60.7,7
	C91.7,85.9,92.3,88.3,91.2,90.1z M98.8,73.1L98.8,73.1c-1.4,2.3-4.4,3-6.7,1.6c-16.8-10.3-42.4-13.3-62.3-7.3
	c-2.6,0.8-5.3-0.7-6.1-3.2c-0.8-2.6,0.7-5.3,3.2-6.1c22.7-6.9,50.9-3.6,70.2,8.3C99.5,67.8,100.2,70.8,98.8,73.1z M107.5,53.4
	c-1.6,2.8-5.2,3.7-8,2h0c-20.1-12-53.4-13.1-72.6-7.2c-3.1,0.9-6.4-0.8-7.3-3.9c-0.9-3.1,0.8-6.4,3.9-7.3c22.1-6.7,58.8-5.4,82,8.4
	C108.2,47,109.1,50.6,107.5,53.4z"/>
</svg>
