<svg xmlns="http://www.w3.org/2000/svg" viewBox="0 0 1280 720" style="enable-background:new 0 0 1280 720" xml:space="preserve"><path d="M976.9 1002.8v-309c0-17.1-6.1-31.8-18.3-44-12.2-12.2-26.9-18.3-44-18.3H341.7c-17.1 0-31.8 6.1-44 18.3-12.2 12.2-18.3 26.9-18.3 44v309c11.4-12.7 24.5-24 39.3-33.9 93.9-63.8 158.4-108.6 193.4-134.3 14.8-10.9 26.8-19.4 36-25.5s21.5-12.3 36.8-18.7 29.6-9.5 42.8-9.5h.8c13.2 0 27.5 3.2 42.8 9.5s27.6 12.6 36.8 18.7c9.2 6.1 21.2 14.6 36 25.5 44.1 31.9 108.7 76.7 193.8 134.3 14.8 10.1 27.8 21.4 39 33.9zm0 114.4c0-20.5-6.4-40.1-19.1-58.8-12.7-18.7-28.5-34.6-47.5-47.9C812.7 942.8 752 900.6 728.2 884c-2.6-1.8-8.1-5.8-16.5-11.9s-15.4-11-21-14.8c-5.6-3.8-12.3-8-20.2-12.6-7.9-4.7-15.4-8.2-22.4-10.5-7-2.3-13.5-3.5-19.5-3.5h-.8c-6 0-12.5 1.2-19.5 3.5s-14.5 5.8-22.4 10.5c-7.9 4.7-14.7 8.9-20.2 12.6s-12.6 8.7-21 14.8-13.9 10.1-16.5 11.9c-23.6 16.6-57.6 40.3-102 71-44.4 30.7-71 49.2-79.8 55.5-16.1 10.9-31.3 25.9-45.5 45-14.3 19.1-21.4 36.8-21.4 53.1 0 20.2 5.4 37.1 16.2 50.6 10.8 13.5 26.1 20.2 46.1 20.2h572.9c16.9 0 31.5-6.1 43.8-18.3 12.2-12.1 18.4-26.8 18.4-43.9z" style="fill:#fff" transform="matrix(1 0 0 -1 30.373 1252.305)"/></svg>