<svg xmlns="http://www.w3.org/2000/svg" viewBox="0 0 125 125" style="enable-background:new 0 0 125 125" xml:space="preserve"><path d="M62.5 0C28 0 0 28 0 62.5S28 125 62.5 125 125 97 125 62.5 97 0 62.5 0zm28.7 90.1c-1.1 1.8-3.5 2.4-5.4 1.3-14.7-9-33.1-11-54.9-6-2.1.5-4.2-.8-4.7-2.9-.5-2.1.8-4.2 2.9-4.7 23.8-5.4 44.2-3.1 60.7 7 1.9 1.1 2.5 3.5 1.4 5.3zm7.6-17c-1.4 2.3-4.4 3-6.7 1.6-16.8-10.3-42.4-13.3-62.3-7.3-2.6.8-5.3-.7-6.1-3.2-.8-2.6.7-5.3 3.2-6.1 22.7-6.9 50.9-3.6 70.2 8.3 2.4 1.4 3.1 4.4 1.7 6.7zm8.7-19.7c-1.6 2.8-5.2 3.7-8 2-20.1-12-53.4-13.1-72.6-7.2-3.1.9-6.4-.8-7.3-3.9-.9-3.1.8-6.4 3.9-7.3 22.1-6.7 58.8-5.4 82 8.4 2.7 1.6 3.6 5.2 2 8z" style="fill:#fff"/></svg>